<svg xmlns="http://www.w3.org/2000/svg" viewBox="0 0 360 125.89"><defs><style>.cls-1{isolation:isolate;}.cls-2,.cls-3,.cls-4{fill:none;stroke-miterlimit:10;stroke-width:1.12px;}.cls-2{stroke:blue;}.cls-3{stroke:red;}.cls-3,.cls-4{opacity:0.5;mix-blend-mode:multiply;}.cls-4{stroke:#39b54a;}.cls-5{fill:red;}</style></defs><g class="cls-1"><g id="Layer_2" data-name="Layer 2"><rect class="cls-2" x="614.8" y="212.78" width="124.77" height="358.88" transform="translate(572.21 -614.24) rotate(90)"/><path class="cls-3" d="M597.68,364.62c-6-7.2-18.25-5.37-26.42-5.54.45-3-1.58-5.3-4.64-4.85l7-8.81c1.6-1.95-1.46-4.45-3-2.45l-8.37,10.51-4.1-7.26c-1.2-2.22-4.62-.25-3.34,1.94l3.43,6.07c-3.91-.47-6,1.34-5.53,5.4h0v-.55c-15-.71-30.62-.41-31.91,18.91,1.65,17.09-7.94,52.09,18.82,52.82.59,1.42,1,3.52,2.91,3.44,1.93.08,2.32-2,2.91-3.44h33.07c.59,1.42,1,3.52,2.91,3.44,1.93.08,2.33-2,2.91-3.44,10.08.3,19-8.69,18.82-18.91C601.87,401.8,607.12,371.94,597.68,364.62Z" transform="translate(-497.19 -329.27)"/><path class="cls-4" d="M594.05,396.61c-4.16,9.12-11.7,16.47-21.67,17.95-10.3,1.47-26.41,3.84-35.5-4.35-1.21-1.07-7.49-7.77-4.11-7.38-.37-.71-2.35-2.28-1.34-2.79,5.72-1.14,6-9.63,9.54-13.45-.71-12,1.45-17.42,12.42-8.3a21.64,21.64,0,0,1,4.73-.78c-2.15-1.58.1-1.86,1.54-1.38-2.81-4.55.36-3.93,2.79-1.25.89.8,1.6,2.05,2.68,2.49a18.69,18.69,0,0,1,5.48.57c10.8-12.06,13.82-4.1,11.55,7.84,3.34,3.16,5.66,7.71,10.77,8.51.87.47-.76,1.23-1.11,1.6C592.44,396.2,593.94,395.74,594.05,396.61Z" transform="translate(-497.19 -329.27)"/><text x="-497.19" y="-329.27"/><path class="cls-5" d="M655.12,342.18H629.55v95.35H670v-20H655.12Zm13.74,76.49v17.74H630.67V343.3H654v75.37Z" transform="translate(-497.19 -329.27)"/><path class="cls-5" d="M682,437.53h25.57V342.18H682Zm1.12-94.23h23.33v93.11H683.16Z" transform="translate(-497.19 -329.27)"/><path class="cls-5" d="M754.2,360.2c-1.21,12-2.37,25.68-3.48,40.76-1.3-16.42-3.27-36-5.84-58.29l-.06-.49H717.89l14.22,94.87.07.48h38.11l12.59-95.35H756Zm27.4-16.9-12.29,93.11H733.15l-14-93.11h24.63c3,25.63,5.09,47.62,6.36,65.36h1.12c1.26-18.1,2.61-34.36,4-48.35l1.65-17Z" transform="translate(-497.19 -329.27)"/><path class="cls-5" d="M818.62,417.55V398H833.9V378.9H818.62V362.16h16.32v-20H793.06v95.35h43.51v-20Zm16.82,18.86H794.18V343.3h39.64V361H817.5v19h15.27v16.81H817.5v21.84h17.94Z" transform="translate(-497.19 -329.27)"/></g></g></svg>